<?xml version="1.0" encoding="UTF-8" ?>
<!DOCTYPE svg PUBLIC "-//W3C//DTD SVG 1.1//EN" "http://www.w3.org/Graphics/SVG/1.1/DTD/svg11.dtd">
<svg width="1000pt" height="1000pt" viewBox="0 0 1000 1000" version="1.1" xmlns="http://www.w3.org/2000/svg">
<g id="#000000ff">
<path fill="#000000" opacity="1.00" d=" M 340.99 62.00 C 362.88 51.66 386.86 46.08 411.01 44.87 C 457.51 43.02 504.43 59.81 539.15 90.83 C 561.98 111.16 579.73 137.25 589.90 166.11 C 603.13 203.15 603.78 244.50 591.95 281.99 C 590.74 285.90 588.98 289.66 588.27 293.71 C 592.39 295.55 596.83 296.51 601.10 297.94 C 650.96 314.06 699.88 333.66 745.56 359.49 C 773.33 375.40 799.97 393.66 823.15 415.84 C 845.64 437.48 865.09 463.38 874.55 493.44 C 875.68 498.32 880.78 500.07 884.53 502.53 C 905.24 515.38 925.27 529.39 944.03 544.96 C 963.27 561.49 981.85 580.01 992.73 603.28 C 996.65 611.22 998.13 620.02 1000.00 628.59 L 1000.00 640.45 C 997.93 650.84 995.40 661.45 989.29 670.31 C 979.08 685.96 963.92 697.59 948.03 707.04 C 929.02 717.97 908.50 726.00 887.68 732.74 C 840.35 747.73 791.36 756.64 742.23 763.25 C 725.72 764.86 708.85 761.70 692.57 765.69 C 686.67 766.93 683.30 772.37 679.49 776.51 C 670.46 786.38 662.79 797.40 655.62 808.67 C 652.08 813.95 647.68 819.54 641.18 821.08 C 637.40 822.02 633.58 822.82 629.74 823.44 C 624.02 824.38 617.56 822.86 613.68 818.34 C 604.09 807.40 600.58 792.94 596.97 779.23 C 594.90 769.96 592.63 760.71 591.49 751.26 C 590.34 744.06 589.93 736.60 587.03 729.82 C 579.29 739.74 573.17 750.80 566.50 761.45 C 559.44 772.09 552.88 783.05 545.51 793.49 C 540.48 800.82 536.06 808.57 530.60 815.60 C 526.58 820.87 521.74 825.49 518.08 831.05 C 512.25 840.10 503.01 846.01 495.85 853.87 C 488.19 862.14 479.01 868.90 468.88 873.83 C 463.72 876.25 457.83 874.92 452.44 876.41 C 447.41 877.79 441.91 878.21 437.11 875.81 C 432.07 873.29 426.31 870.58 423.74 865.26 C 422.97 861.12 424.30 856.71 422.56 852.69 C 421.92 849.11 418.78 847.07 416.89 844.26 C 414.95 838.79 417.04 832.92 415.71 827.36 C 415.12 824.60 414.77 821.78 415.08 818.96 C 415.87 811.64 414.53 804.32 415.03 796.99 C 415.38 791.81 415.44 786.62 415.58 781.44 C 415.79 773.57 418.17 765.88 417.66 757.98 C 416.30 759.28 415.31 760.91 414.57 762.64 C 411.60 769.37 407.35 775.43 403.80 781.85 C 398.06 791.64 393.46 802.03 387.92 811.93 C 382.87 820.45 378.34 829.27 374.21 838.28 C 371.81 843.09 368.60 847.47 366.49 852.44 C 361.54 863.60 354.15 873.38 347.70 883.68 C 339.68 896.49 331.88 909.51 322.15 921.13 C 314.61 930.58 305.27 938.33 296.13 946.15 C 289.75 951.55 281.25 952.98 273.28 954.39 C 264.11 955.99 254.20 955.54 245.86 951.07 C 235.39 945.60 228.57 935.04 225.10 924.02 C 220.87 912.10 220.46 899.35 219.45 886.88 C 219.08 882.25 219.02 877.61 219.25 872.98 C 220.12 844.70 222.85 816.47 227.68 788.58 C 228.96 780.88 231.52 773.45 232.69 765.73 C 233.54 760.14 234.48 754.55 236.09 749.13 C 239.49 737.46 239.87 725.14 243.54 713.54 C 244.99 709.15 244.74 704.49 245.13 699.94 C 245.30 697.32 247.31 695.39 248.31 693.08 C 247.58 691.06 246.09 689.26 246.11 687.04 C 246.21 677.86 247.60 668.66 246.55 659.49 C 246.21 656.76 247.74 654.00 246.73 651.34 C 245.44 647.71 243.97 644.13 242.33 640.65 C 240.47 636.57 236.36 633.55 231.84 633.36 C 223.24 632.97 215.02 635.84 206.85 638.07 C 204.18 639.17 201.95 636.90 202.24 634.26 C 206.73 629.72 213.58 629.34 219.25 627.07 C 224.99 624.65 231.50 624.83 237.42 626.47 C 244.49 629.05 250.47 634.74 253.05 641.86 C 255.00 646.58 255.09 651.77 256.33 656.68 C 256.92 659.08 257.60 661.47 257.71 663.96 C 257.90 672.97 258.59 681.99 257.89 691.01 C 257.77 701.38 256.05 711.61 254.77 721.87 C 252.91 735.25 251.41 748.68 249.02 761.99 C 243.90 795.41 237.59 829.03 239.43 862.99 C 240.00 871.17 239.57 879.41 240.68 887.55 C 241.28 892.19 242.58 896.69 243.49 901.27 C 244.45 905.95 245.38 910.82 248.09 914.87 C 250.84 919.02 254.34 922.65 258.22 925.77 C 261.42 928.27 265.44 930.39 269.63 929.73 C 273.25 928.82 276.20 926.37 279.08 924.13 C 285.41 918.81 291.79 913.43 296.99 906.97 C 301.16 901.98 304.30 896.27 307.89 890.89 C 313.83 881.49 320.26 872.41 325.94 862.85 C 330.74 854.72 336.80 847.34 340.73 838.71 C 344.95 831.43 350.90 824.71 352.18 816.12 C 352.82 813.49 355.23 811.85 356.67 809.69 C 359.65 805.51 360.65 800.34 362.87 795.77 C 365.32 790.36 368.48 785.30 370.87 779.85 C 375.33 770.51 381.46 762.07 385.55 752.54 C 387.61 747.58 390.68 743.15 394.05 739.00 C 395.81 737.03 395.32 734.24 395.97 731.87 C 397.35 731.01 398.85 730.35 400.24 729.49 C 400.61 726.52 399.83 723.26 401.61 720.63 C 404.92 714.84 408.05 708.93 410.73 702.82 C 413.86 694.59 419.56 687.73 424.68 680.69 C 429.18 674.26 437.63 672.35 445.05 672.97 C 448.47 673.29 452.45 674.81 453.59 678.39 C 455.70 685.17 455.45 692.44 454.42 699.39 C 453.41 706.23 453.14 713.16 451.86 719.97 C 450.87 725.74 449.09 731.35 448.16 737.14 C 445.20 759.90 443.59 782.82 443.22 805.77 C 442.99 816.59 444.51 827.33 445.21 838.11 C 445.50 840.98 445.61 844.16 447.51 846.51 C 450.82 848.71 455.41 848.89 458.84 846.82 C 464.83 843.37 470.09 838.82 475.14 834.15 C 478.43 831.13 482.04 828.38 484.76 824.80 C 486.91 821.96 489.13 819.17 491.71 816.71 C 496.56 812.08 499.82 806.15 503.99 800.96 C 512.19 790.52 518.54 778.81 525.73 767.69 C 529.61 762.46 532.95 756.87 536.24 751.26 C 543.97 739.33 551.12 727.01 559.55 715.54 C 564.49 708.94 568.85 701.53 575.94 696.96 C 582.83 692.71 591.33 690.63 599.32 692.61 C 605.00 693.49 610.09 697.33 612.26 702.67 C 617.78 715.52 619.05 729.60 621.87 743.17 C 625.59 759.99 626.39 778.17 635.88 793.08 C 641.99 785.73 646.93 777.47 653.25 770.27 C 657.17 765.20 662.17 761.06 665.88 755.82 C 670.46 749.41 676.79 744.44 683.63 740.64 C 689.81 737.12 697.17 737.68 704.00 736.89 C 745.85 732.88 787.52 726.64 828.58 717.58 C 853.54 711.67 878.40 704.96 902.16 695.22 C 919.09 688.54 935.60 680.26 949.84 668.81 C 958.03 662.15 965.25 653.69 968.39 643.44 C 970.59 634.80 969.33 625.45 965.64 617.39 C 959.72 603.64 949.60 592.33 939.27 581.73 C 927.37 570.18 914.34 559.86 900.95 550.09 C 894.50 545.69 888.39 540.71 881.43 537.14 C 880.39 549.06 881.38 561.13 879.81 572.99 C 878.54 573.22 877.27 573.36 876.00 573.42 C 802.33 573.46 728.66 573.05 654.99 573.06 C 577.67 572.57 500.34 572.65 423.01 572.64 C 395.34 572.07 367.67 572.47 340.01 572.24 C 288.34 571.92 236.67 572.21 185.00 571.82 C 131.09 571.53 77.18 571.74 23.28 571.50 C 19.26 571.84 16.18 569.10 13.69 566.31 C 9.59 561.70 4.62 557.88 0.87 552.95 C 3.98 548.15 8.39 544.39 12.08 540.07 C 38.83 510.52 66.43 481.75 93.62 452.61 C 142.22 400.89 190.78 349.13 239.38 297.41 C 241.72 294.84 244.48 292.62 246.37 289.68 C 245.69 284.28 243.15 279.31 242.00 274.00 C 229.30 226.87 236.62 174.74 262.06 133.05 C 280.59 102.28 308.41 77.15 340.99 62.00 M 409.29 81.32 C 369.71 83.24 331.56 102.85 306.22 133.21 C 286.41 156.77 274.10 186.74 272.38 217.53 C 270.01 250.57 279.50 284.28 298.71 311.25 C 315.66 335.34 340.02 354.18 367.70 364.27 C 391.64 373.14 417.94 375.57 443.09 371.13 C 477.26 365.36 509.00 346.73 530.94 319.94 C 550.72 296.13 562.48 265.89 564.14 234.99 C 566.30 196.90 552.75 158.17 527.16 129.86 C 498.07 96.75 453.29 78.17 409.29 81.32 M 258.96 329.98 C 197.93 394.95 136.91 459.93 75.90 524.92 C 73.19 527.87 70.17 530.56 67.93 533.90 C 128.62 534.51 189.33 534.21 250.03 534.34 C 267.35 534.85 284.67 534.52 302.00 534.65 C 335.00 534.66 368.00 534.71 401.00 534.71 C 455.33 534.50 509.66 535.35 564.00 535.30 C 608.33 535.47 652.66 535.02 696.99 535.62 C 746.20 535.55 795.43 535.94 844.64 535.65 C 844.98 531.09 844.66 526.52 844.18 521.99 C 843.53 514.20 840.38 506.96 838.54 499.43 C 830.95 479.22 817.76 461.58 802.70 446.31 C 775.43 418.72 742.16 397.96 707.95 380.09 C 674.77 363.14 640.14 349.11 604.87 337.13 C 593.68 333.49 582.56 329.52 571.20 326.50 C 570.59 327.13 570.05 327.80 569.55 328.52 C 550.05 357.65 522.00 381.01 489.72 394.72 C 454.80 409.74 415.14 413.25 378.08 404.89 C 333.41 395.06 293.05 367.43 267.48 329.55 C 266.36 328.11 265.65 326.12 263.99 325.24 C 261.90 326.29 260.58 328.36 258.96 329.98 Z" />
</g>
</svg>
